<?xml version="1.0" encoding="UTF-8"?><svg id="Layer_1" xmlns="http://www.w3.org/2000/svg" viewBox="0 0 148.12 182.01"><defs><style>.cls-1{stroke-width:9px;}.cls-1,.cls-2{stroke:#023f26;}.cls-1,.cls-2,.cls-3{fill:none;stroke-miterlimit:10;}.cls-2{stroke-width:10px;}.cls-4{fill:#023f26;}.cls-3{stroke:#826d04;stroke-width:5px;}</style></defs><path class="cls-4" d="M42.73,127.26l1.38-114.79c0-4.88-2.82-5.47-3.81-6.27-.99-.79-4.72-2.24-10.79-2.24-2.51,0-3.76-.72-3.76-2.18,0-1.19.79-1.78,2.38-1.78h1.69c.06,0,.12,0,.19,0,4.38.39,13,.59,25.85.59,1.19,0,3.5-.1,6.93-.3,3.43-.2,6.27-.3,8.51-.3h2.18c5.25,0,8.97,2.62,8.97,3.93,0,.79-5.75-.49-6.5-.47-1.32.03-3.09-.32-6.83.5-7.83,1.7-7.17,3.48-7.89,4.61-.73,1.12-.03,7.67-.03,7.67v114.61c0,1.24.98,2.25,2.22,2.28,3.31.09,7.52.13,12.63.13,15.44,0,30.87.32,37.35-.54,6.83-.91,9.37-1.98,13.13-6.14,2.23-2.48,5.33-9.58,7.78-16.48.59-1.65,2.47-9.08,2.98-10.53.69-1.95,1.65-5.19,3.87-8.05.34-.43,1.84-1.97,2.7-2.9.5-.54,2.84-2.02,3.46-2.38h0c1.31-.51,1.12-.23-1.02,3.75l-.71,1.23c-.37.77-.81,1.34-.91,1.61l-.94,1.86c-.42.74-.6,1.92-.79,2.75-.21.93-.39,1.44-.7,2.84-1.04,4.7-.76,3.38-1.2,6.21-.12.78-.35,2.57-1.13,6.67l-2.22,9.91c-.35,1.49-1.51,10.29-8.64,14.12-2.24,1.2-13.91,1.03-17.72,1.03l-66.95-.48c-2.24,0-10.53-.37-10.53-1.56,0-.92,7.05-1.84,8.54-5.09"/><path class="cls-3" d="M69.49,17.03c26.29-3.12,53.86,5.53,74.34,23.88"/><path class="cls-2" d="M34.41,39.77c-3.28,2.58-6.41,5.48-9.32,8.68C-4.79,81.26.12,129.62,30.16,156.98c31.37,28.57,79.97,26.31,108.54-5.06"/><path class="cls-1" d="M70.17,28.86c21.44-2.84,51.85,6.81,68,22.63"/></svg>